<svg width="20" height="20" viewBox="0 0 20 20" fill="white" xmlns="http://www.w3.org/2000/svg">
<g opacity="0.4">
  <path fill-rule="evenodd" clip-rule="evenodd" d="M8.75002 15.8333C4.838 15.8333 1.66669 12.662 1.66669 8.74996C1.66669 4.83794 4.838 1.66663 8.75002 1.66663C12.662 1.66663 15.8334 4.83794 15.8334 8.74996C15.8334 10.4057 15.2653 11.9287 14.3134 13.1348L18.0893 16.9107C18.4147 17.2361 18.4147 17.7638 18.0893 18.0892C17.7638 18.4146 17.2362 18.4146 16.9108 18.0892L13.1349 14.3133C11.9288 15.2652 10.4057 15.8333 8.75002 15.8333ZM12.6331 12.5265C12.614 12.5424 12.5954 12.5594 12.5774 12.5774C12.5595 12.5953 12.5425 12.6139 12.5265 12.633C11.5508 13.5821 10.2187 14.1666 8.75002 14.1666C5.75848 14.1666 3.33335 11.7415 3.33335 8.74996C3.33335 5.75842 5.75848 3.33329 8.75002 3.33329C11.7416 3.33329 14.1667 5.75842 14.1667 8.74996C14.1667 10.2186 13.5822 11.5508 12.6331 12.5265Z" />
</g>
</svg>
